<svg width="496" height="134" viewBox="0 0 496 134" fill="none" xmlns="http://www.w3.org/2000/svg">
<g clip-path="url(#clip0_404_10)">
<path d="M119.64 81.9533C123.646 82.7022 126.938 84.7099 129.518 87.9769C132.098 91.244 133.388 94.9873 133.388 99.2074C133.388 103.019 132.437 106.388 130.536 109.315C128.703 112.174 126.022 114.42 122.491 116.053C118.961 117.687 114.786 118.503 109.965 118.503H79.3125V47.2409H108.642C113.462 47.2409 117.603 48.0235 121.066 49.5891C124.596 51.1547 127.244 53.3325 129.009 56.1232C130.842 58.914 131.758 62.0789 131.758 65.6181C131.758 69.7698 130.638 73.241 128.398 76.0318C126.225 78.8225 123.306 80.7961 119.64 81.9533ZM93.5697 76.6444H106.605C109.999 76.6444 112.613 75.8955 114.446 74.3983C116.279 72.8326 117.196 70.6207 117.196 67.7621C117.196 64.9034 116.279 62.6915 114.446 61.1259C112.613 59.5603 109.999 58.7777 106.605 58.7777H93.5697V76.6444ZM107.929 106.865C111.391 106.865 114.073 106.048 115.974 104.414C117.943 102.781 118.927 100.467 118.927 97.4718C118.927 94.4089 117.909 92.0266 115.872 90.3251C113.835 88.5553 111.086 87.6706 107.623 87.6706H93.5697V106.865H107.929ZM185.282 104.925H156.971L152.287 118.503H137.316L162.878 47.1388H179.477L205.038 118.503H189.966L185.282 104.925ZM181.412 93.4901L171.127 63.6783L160.841 93.4901H181.412ZM225.794 107.171H249.217V118.503H211.537V47.2409H225.794V107.171ZM269.481 107.171H292.903V118.503H255.224V47.2409H269.481V107.171ZM331.905 119.218C325.252 119.218 319.142 117.652 313.575 114.522C308.008 111.391 303.594 107.069 300.336 101.556C297.077 95.9745 295.448 89.6784 295.448 82.668C295.448 75.7255 297.077 69.4977 300.336 63.9845C303.594 58.4035 308.008 54.0471 313.575 50.9164C319.142 47.7856 325.252 46.22 331.905 46.22C338.626 46.22 344.737 47.7856 350.236 50.9164C355.803 54.0471 360.182 58.4035 363.373 63.9845C366.632 69.4977 368.261 75.7255 368.261 82.668C368.261 89.6784 366.632 95.9745 363.373 101.556C360.182 107.069 355.803 111.391 350.236 114.522C344.669 117.652 338.559 119.218 331.905 119.218ZM331.905 106.456C336.182 106.456 339.95 105.503 343.209 103.597C346.468 101.624 349.014 98.8332 350.847 95.2257C352.68 91.6182 353.596 87.4323 353.596 82.668C353.596 77.9037 352.68 73.7515 350.847 70.2124C349.014 66.6048 346.468 63.8483 343.209 61.9426C339.95 60.037 336.182 59.084 331.905 59.084C327.628 59.084 323.826 60.037 320.499 61.9426C317.241 63.8483 314.695 66.6048 312.862 70.2124C311.029 73.7515 310.112 77.9037 310.112 82.668C310.112 87.4323 311.029 91.6182 312.862 95.2257C314.695 98.8332 317.241 101.624 320.499 103.597C323.826 105.503 327.628 106.456 331.905 106.456ZM436.609 118.503H422.352L390.07 69.5998V118.503H375.813V47.1388H390.07L422.352 96.1445V47.1388H436.609V118.503Z" fill="white"/>
<path d="M20.0037 0H0V118.503H20.0037V0Z" fill="white"/>
<path d="M496 0H475.996V118.503H496V0Z" fill="white"/>
<path d="M20.0039 2.09808e-05V20.0544L496 20.0544V2.09808e-05L20.0039 2.09808e-05Z" fill="white"/>
<path d="M46.372 118.503C51.8958 118.503 56.3738 114.014 56.3738 108.476C56.3738 102.938 51.8958 98.449 46.372 98.449C40.8481 98.449 36.3701 102.938 36.3701 108.476C36.3701 114.014 40.8481 118.503 46.372 118.503Z" fill="white"/>
</g>
<defs>
<clipPath id="clip0_404_10">
<rect width="496" height="134" fill="white"/>
</clipPath>
</defs>
</svg>
