<svg width="680" height="256" viewBox="0 0 680 256" fill="none" xmlns="http://www.w3.org/2000/svg">
<path d="M380.152 38.288V73.36H332.536V218H288.76V73.36H241.144V38.288H380.152ZM511.434 38.288V73.36H438.218V111.248H493.002V145.296H438.218V218H394.442V38.288H511.434ZM635.562 125.84C645.973 128.059 654.335 133.264 660.65 141.456C666.965 149.477 670.122 158.693 670.122 169.104C670.122 184.123 664.831 196.069 654.25 204.944C643.839 213.648 629.247 218 610.474 218H526.762V38.288H607.658C625.919 38.288 640.17 42.4693 650.41 50.832C660.821 59.1947 666.026 70.544 666.026 84.88C666.026 95.4613 663.21 104.251 657.578 111.248C652.117 118.245 644.778 123.109 635.562 125.84ZM570.538 110.992H599.21C606.378 110.992 611.839 109.456 615.594 106.384C619.519 103.141 621.482 98.448 621.482 92.304C621.482 86.16 619.519 81.4667 615.594 78.224C611.839 74.9813 606.378 73.36 599.21 73.36H570.538V110.992ZM602.794 182.672C610.133 182.672 615.765 181.051 619.69 177.808C623.786 174.395 625.834 169.531 625.834 163.216C625.834 156.901 623.701 151.952 619.434 148.368C615.338 144.784 609.621 142.992 602.282 142.992H570.538V182.672H602.794Z" fill="white"/>
<path d="M126.39 202.275L32.0476 81.5755L23.6829 88.0755L118.04 208.786L118.054 208.804C128.797 222.429 144.069 231.875 161.086 235.42L234.475 250.689L236.63 240.332L163.241 225.063C148.687 222.035 135.58 213.938 126.39 202.275Z" fill="white" stroke="white" stroke-width="0.341797"/>
<path d="M165.395 214.711C165.395 214.711 194.638 220.795 220.608 226.198C246.577 231.601 248.068 204.903 231.995 197.51C221.151 192.52 207.781 183.454 207.781 183.454C202.408 180.335 198.557 175.145 197.146 169.119C197.146 169.119 196.792 167.652 196.199 165.183L173.67 167.162C171.208 167.379 169.032 165.566 168.811 163.111C168.595 160.657 170.408 158.488 172.869 158.275L194.098 156.408C193.14 152.403 192.03 147.75 190.862 142.839L169.807 144.693C167.344 144.91 165.17 143.087 164.948 140.639C164.726 138.183 166.55 136.017 169.006 135.8L188.773 134.063C187.675 129.416 186.584 124.79 185.576 120.49L165.943 122.22C163.481 122.434 161.305 120.621 161.083 118.166C160.868 115.711 162.681 113.543 165.142 113.331L183.533 111.711C182.173 105.813 181.203 101.449 180.982 100.112C180.022 94.2816 178.563 78.3589 166.396 84.5091C146.387 94.6324 115.919 84.1049 110.951 67.4564C107.226 54.9782 113.203 43.6202 117.773 34.6688C121.428 27.5145 113.153 13.4515 103.211 22.1871C96.1778 28.3594 38.3476 73.5019 38.3476 73.5019L134.73 195.744C142.397 205.47 153.256 212.185 165.395 214.711Z" fill="white" stroke="white" stroke-width="0.341797"/>
</svg>
